# xmcd
#
# Track frame offsets: 
#        150
#        17292
#        38289
#        53899
#        70653
#        89087
#        107008
#        124602
#        143353
#        158881
#        176166
#
# Disc length: 2774 seconds
#
# Revision: 0
# Processed by: cddbd v1.5.2PL0 Copyright (c) Steve Scherf et al.
# Submitted via: ExactAudioCopyFreeDBPlugin 1.0
#
DISCID=810ad40b
DTITLE=Steve Hill - Whiplash Love
DYEAR=2011
DGENRE=Blues
TTITLE0=It Ain't Cool
TTITLE1=Goodbye Sunshine
TTITLE2=Cold Hearts
TTITLE3=Whiplash Love (feat. Jonas)
TTITLE4=I'll Walk
TTITLE5=Running Out Of Time
TTITLE6=Burnt
TTITLE7=I Fall For You
TTITLE8=Only Daddy That'll Walk The Line
TTITLE9=Let's Get Back Together
TTITLE10=Judgment Day
EXTD=
EXTT0=
EXTT1=
EXTT2=
EXTT3=
EXTT4=
EXTT5=
EXTT6=
EXTT7=
EXTT8=
EXTT9=
EXTT10=
PLAYORDER=
